<svg width="128" height="128" viewBox="0 0 128 128" fill="none" xmlns="http://www.w3.org/2000/svg">
  <defs>
    <linearGradient id="bg" x1="14" y1="10" x2="112" y2="118" gradientUnits="userSpaceOnUse">
      <stop stop-color="#0D47A1"/>
      <stop offset="1" stop-color="#00897B"/>
    </linearGradient>
  </defs>
  <rect x="8" y="8" width="112" height="112" rx="24" fill="url(#bg)"/>
  <circle cx="64" cy="64" r="34" stroke="#D7F3FF" stroke-width="4" opacity="0.7"/>
  <path d="M40 52C40 45.4 45.4 40 52 40H62V48H54C50.7 48 48 50.7 48 54V74C48 77.3 50.7 80 54 80H62V88H52C45.4 88 40 82.6 40 76V52Z" fill="white"/>
  <path d="M66 40H77C84.7 40 91 46.3 91 54C91 60.3 86.8 65.6 81 67.2L90 88H81.3L73.3 69H74V61H77C80.3 61 83 58.3 83 55C83 51.7 80.3 49 77 49H66V40Z" fill="white"/>
</svg>
